<svg viewBox="0 0 450 450" xmlns="http://www.w3.org/2000/svg">
  <defs>
    <linearGradient id="bbBody" x1="0%" y1="0%" x2="100%" y2="100%">
      <stop offset="0%" style="stop-color:#2a2a3e;stop-opacity:1" />
      <stop offset="40%" style="stop-color:#1a1a2e;stop-opacity:1" />
      <stop offset="100%" style="stop-color:#0a0a0f;stop-opacity:1" />
    </linearGradient>
    <linearGradient id="bbBase" x1="0%" y1="0%" x2="0%" y2="100%">
      <stop offset="0%" style="stop-color:#ffd700;stop-opacity:0.9" />
      <stop offset="100%" style="stop-color:#b8860b;stop-opacity:0.9" />
    </linearGradient>
    <filter id="bbShadow" x="-30%" y="-30%" width="160%" height="160%">
      <feDropShadow dx="0" dy="4" stdDeviation="3" flood-color="#000000" flood-opacity="0.5"/>
    </filter>
    <filter id="bbGlow" x="-50%" y="-50%" width="200%" height="200%">
      <feGaussianBlur stdDeviation="2" result="blur"/>
      <feMerge><feMergeNode in="blur"/><feMergeNode in="SourceGraphic"/></feMerge>
    </filter>
  </defs>
  <g filter="url(#bbShadow)">
    <path d="M225 60 C225 60 245 85 242 120 L225 105 L208 120 C205 85 225 60 225 60 Z" fill="url(#bbBody)" stroke="#0a0a0f" stroke-width="8" filter="url(#bbGlow)"/>
    <path d="M225 105 L225 180" stroke="url(#bbBase)" stroke-width="12" stroke-linecap="round"/>
    <path d="M208 120 Q225 110 242 120" stroke="url(#bbBase)" stroke-width="10" stroke-linecap="round" fill="none" opacity="0.8"/>
    <ellipse cx="225" cy="195" rx="55" ry="18" fill="url(#bbBase)" opacity="0.8"/>
    <ellipse cx="225" cy="195" rx="42" ry="12" fill="#3a3a4e" opacity="0.4"/>
    <path d="M225 205 L205 310 L245 310 Z" fill="url(#bbBody)" stroke="#0a0a0f" stroke-width="8"/>
    <ellipse cx="225" cy="315" rx="70" ry="20" fill="url(#bbBase)" opacity="0.8"/>
    <ellipse cx="225" cy="315" rx="55" ry="14" fill="#3a3a4e" opacity="0.4"/>
  </g>
</svg>